<svg width="16" height="17" viewBox="0 0 16 17" fill="none" xmlns="http://www.w3.org/2000/svg">
<path d="M0 14.9333C0 10.8089 0 6.68445 0 2.56C0.284444 1.76356 0.860444 1.45067 1.68533 1.49333C2.28267 1.52178 2.88 1.50044 3.49867 1.50044C3.49867 1.20889 3.51289 0.96 3.49867 0.711111C3.47733 0.398222 3.57689 0.163556 3.84 0C3.93244 0 4.032 0 4.12444 0C4.416 0.142222 4.51555 0.376889 4.48711 0.696889C4.46578 0.952889 4.48 1.20889 4.48 1.47911C5.504 1.47911 6.49244 1.47911 7.51644 1.47911C7.51644 1.19467 7.53067 0.924445 7.50933 0.654222C7.488 0.369778 7.58755 0.156444 7.81511 0C7.936 0 8.04978 0 8.17067 0C8.40533 0.156444 8.49778 0.376889 8.47644 0.661333C8.45511 0.931556 8.46933 1.19467 8.46933 1.47911C9.50044 1.47911 10.4818 1.47911 11.5058 1.47911C11.5058 1.19467 11.5271 0.924445 11.4987 0.654222C11.4702 0.341333 11.5911 0.135111 11.8613 0C11.9538 0 12.0533 0 12.1458 0C12.416 0.163556 12.5084 0.405333 12.4871 0.718222C12.4729 0.974222 12.4871 1.22311 12.4871 1.50044C13.1342 1.50044 13.7244 1.50044 14.3147 1.50044C15.296 1.50044 15.6302 1.728 15.9858 2.63822C15.9858 6.74133 15.9858 10.8373 15.9858 14.9404C15.7867 15.488 15.4311 15.8649 14.848 16.0071C10.2756 16.0071 5.696 16.0071 1.12356 16.0071C0.554667 15.8578 0.199111 15.4809 0 14.9333ZM4.48 2.51022C4.48 2.83733 4.48 3.12178 4.48 3.40622C4.48 3.79022 4.32355 3.97511 4.01778 3.98933C3.69778 3.99644 3.51289 3.79022 3.49867 3.40622C3.49156 3.11467 3.49867 2.82311 3.49867 2.496C2.83733 2.496 2.21156 2.496 1.58578 2.496C1.06667 2.48889 0.995555 2.56 0.995555 3.07911C0.995555 6.85511 0.995555 10.6382 0.995555 14.4142C0.995555 14.9404 1.05956 15.0044 1.59289 15.0044C5.86667 15.0044 10.1476 15.0044 14.4213 15.0044C14.9404 15.0044 15.0116 14.9333 15.0116 14.4071C15.0116 10.6311 15.0116 6.848 15.0116 3.072C15.0116 2.98667 15.04 2.88711 15.0044 2.83022C14.9191 2.70222 14.8053 2.51022 14.6916 2.51022C13.9733 2.48178 13.2551 2.496 12.5013 2.496C12.5013 2.83733 12.5084 3.14311 12.5013 3.44889C12.4871 3.79733 12.2809 3.99644 11.9751 3.98933C11.6764 3.97511 11.5271 3.79733 11.52 3.43467C11.5129 3.12889 11.52 2.82311 11.52 2.51733C10.4889 2.51733 9.50044 2.51733 8.48355 2.51733C8.48355 2.83733 8.49067 3.12889 8.48355 3.42044C8.47644 3.80444 8.31289 3.98222 8 3.98222C7.68711 3.98222 7.53067 3.79733 7.52356 3.41333C7.51644 3.10756 7.52356 2.80889 7.52356 2.51022C6.47822 2.51022 5.504 2.51022 4.48 2.51022Z" fill="#777777"/>
<path d="M3.52 12.4729C3.52 11.9893 3.52 11.5271 3.52 11.0364C4.16711 11.0364 4.8 11.0364 5.45422 11.0364C5.45422 11.5058 5.45422 11.9751 5.45422 12.4729C4.82844 12.4729 4.19555 12.4729 3.52 12.4729Z" fill="#777777"/>
<path d="M10.5458 11.0364C11.1858 11.0364 11.8187 11.0364 12.48 11.0364C12.48 11.5129 12.48 11.9822 12.48 12.4729C11.84 12.4729 11.2071 12.4729 10.5458 12.4729C10.5458 12.0107 10.5458 11.5484 10.5458 11.0364Z" fill="#777777"/>
<path d="M8.96 11.0364C8.96 11.5271 8.96 11.9964 8.96 12.48C8.32 12.48 7.70133 12.48 7.04711 12.48C7.04711 12.0035 7.04711 11.5271 7.04711 11.0364C7.68 11.0364 8.29867 11.0364 8.96 11.0364Z" fill="#777777"/>
<path d="M5.46133 7.45954C4.8 7.45954 4.17422 7.45954 3.52 7.45954C3.52 6.99021 3.52 6.5351 3.52 6.04443C4.16711 6.04443 4.80711 6.04443 5.46133 6.04443C5.46133 6.51377 5.46133 6.96888 5.46133 7.45954Z" fill="#777777"/>
<path d="M12.4587 7.45958C11.8329 7.45958 11.2 7.45958 10.5387 7.45958C10.5387 6.99024 10.5387 6.52091 10.5387 6.03735C11.1716 6.03735 11.7902 6.03735 12.4587 6.03735C12.4587 6.49958 12.4587 6.96891 12.4587 7.45958Z" fill="#777777"/>
<path d="M5.45422 9.96974C4.8 9.96974 4.17422 9.96974 3.52 9.96974C3.52 9.4933 3.52 9.02396 3.52 8.54041C4.16 8.54041 4.79289 8.54041 5.45422 8.54041C5.45422 9.00974 5.45422 9.47196 5.45422 9.96974Z" fill="#777777"/>
<path d="M10.5387 9.96263C10.5387 9.46485 10.5387 9.00974 10.5387 8.54041C11.1929 8.54041 11.8187 8.54041 12.48 8.54041C12.48 9.01685 12.48 9.47907 12.48 9.96263C11.8258 9.96263 11.1929 9.96263 10.5387 9.96263Z" fill="#777777"/>
<path d="M7.04 7.45954C7.04 6.97599 7.04 6.52088 7.04 6.04443C7.68 6.04443 8.29866 6.04443 8.95288 6.04443C8.95288 6.50666 8.95288 6.97599 8.95288 7.45954C8.32711 7.45954 7.70133 7.45954 7.04 7.45954Z" fill="#777777"/>
<path d="M7.04 8.54041C7.69422 8.54041 8.31289 8.54041 8.96 8.54041C8.96 9.01685 8.96 9.47196 8.96 9.95552C8.32 9.95552 7.69422 9.95552 7.04 9.95552C7.04 9.48619 7.04 9.03107 7.04 8.54041Z" fill="#777777"/>
</svg>
