<svg width="13" height="16" viewBox="0 0 13 16" fill="none" xmlns="http://www.w3.org/2000/svg">
<path d="M6.58893 12.252C5.62562 12.9666 4.6858 13.6581 3.72249 14.3727C3.04112 14.8798 2.35975 15.387 1.67839 15.8711C1.37295 16.1016 0.973523 15.9402 0.926532 15.5714C0.903037 15.3639 0.997019 15.2256 1.16149 15.1104C2.1013 14.4188 3.04112 13.7273 3.98094 13.0357C4.59182 12.5977 5.1792 12.1367 5.81358 11.6987C5.76659 11.6757 5.74309 11.6296 5.7196 11.6065C4.54483 10.7306 3.37006 9.87767 2.19529 9.00172C2.1248 8.95561 2.03082 8.90951 1.96033 8.88646C1.41994 8.7251 0.856046 8.58679 0.315651 8.40238C0.0806971 8.33322 -0.03678 8.12576 0.0102108 7.89525C0.0572017 7.59558 0.339147 7.45727 0.644587 7.54947C0.973523 7.66473 1.32595 7.75694 1.67839 7.87219C1.70188 7.87219 1.72538 7.87219 1.77237 7.89525C1.77237 7.77999 1.77237 7.66473 1.77237 7.54947C1.77237 5.22127 1.77237 2.87002 1.77237 0.541824C1.77237 0.311309 1.84285 0.126897 2.07781 0.0346913C2.35975 -0.0805661 2.68869 0.103846 2.71218 0.403515C2.73568 0.564875 2.71218 0.726236 2.71218 0.887596C2.71218 1.00285 2.75918 1.04896 2.85316 1.09506C3.41705 1.30252 3.98094 1.41778 4.56832 1.46388C5.64911 1.62524 6.80039 1.62524 7.95166 1.53304C8.68002 1.48693 9.40838 1.39473 10.1367 1.18727C10.2777 1.14116 10.3247 1.09506 10.3247 0.933699C10.3012 0.79539 10.3247 0.63403 10.3247 0.495721C10.3247 0.219103 10.5362 0.0116398 10.7946 0.0116398C11.0531 0.0116398 11.241 0.219103 11.241 0.495721C11.241 1.11811 11.241 1.7405 11.241 2.36289C11.241 4.13785 11.241 5.91282 11.241 7.68778C11.241 7.73388 11.241 7.77999 11.2645 7.84914C11.6404 7.71083 11.9694 7.59558 12.3218 7.45727C12.6038 7.34201 12.8857 7.48032 12.9797 7.75694C13.0502 7.9644 12.9327 8.19491 12.6977 8.28712C12.2983 8.44848 11.8754 8.58679 11.4525 8.7251C11.335 8.7712 11.241 8.8173 11.147 8.88646C9.92528 9.78547 8.70352 10.6845 7.50525 11.5835C7.45826 11.6065 7.41127 11.6526 7.36428 11.6987C7.41127 11.7448 7.43476 11.7679 7.48175 11.7909C8.93847 12.8744 10.4187 13.9578 11.8754 15.0412C11.9224 15.0873 11.9929 15.1334 12.0399 15.1565C12.2748 15.3409 12.3218 15.6175 12.1573 15.825C11.9929 16.0324 11.7109 16.0555 11.4995 15.8941C10.9121 15.4561 10.3247 15.0412 9.76081 14.6032C8.72701 13.8425 7.71671 13.0818 6.68291 12.3442C6.63592 12.2981 6.61242 12.275 6.58893 12.252ZM2.68869 4.94466C2.66519 4.99076 2.66519 4.99076 2.66519 5.01381C2.66519 6.00502 2.66519 7.01929 2.66519 8.0105C2.66519 8.10271 2.71218 8.12576 2.80617 8.12576C3.51103 8.21797 4.1924 8.31017 4.89726 8.37933C6.42446 8.49458 7.95166 8.44848 9.45537 8.21797C9.73732 8.17186 10.0428 8.12576 10.3247 8.07966C10.3247 6.97319 10.3247 5.88977 10.3247 4.7833C7.7637 5.79756 5.22619 5.70535 2.68869 4.94466ZM9.17343 9.20918C9.17343 9.18613 9.17343 9.18613 9.14993 9.16308C7.45826 9.37054 5.74309 9.37054 4.02793 9.20918C4.05142 9.23223 4.07492 9.25528 4.07492 9.27833C4.87376 9.87767 5.6961 10.477 6.49495 11.0763C6.56543 11.1455 6.61242 11.0994 6.68291 11.0533C7.10583 10.7306 7.55224 10.4079 7.97516 10.0851C8.37458 9.80852 8.774 9.50885 9.17343 9.20918Z" fill="#777777"/>
</svg>
