<svg width="18" height="21" viewBox="0 0 18 21" fill="none" xmlns="http://www.w3.org/2000/svg">
<path d="M7.21718 10.5216L17.0119 0.172483C17.1838 -1.90735e-06 17.3556 0 17.5274 0C17.6993 0 17.8711 -1.90735e-06 17.8711 0.172483C18.043 0.344967 18.043 0.689938 17.8711 0.862423L8.93556 10.3491L17.8711 20.0082C18.043 20.1807 18.043 20.6982 17.8711 20.8706C17.6993 21.0431 17.1838 21.0431 17.0119 20.8706L7.21718 10.5216ZM9.79475 20.8706C10.1384 21.0431 10.4821 21.0431 10.6539 20.8706C10.8258 20.6982 10.8258 20.1807 10.6539 20.0082L1.71838 10.5216L10.6539 1.03491C10.8258 0.862421 10.8258 0.344967 10.6539 0.172483C10.4821 -1.90735e-06 10.3103 0 10.3103 0C10.1384 0 9.96659 -1.90735e-06 9.79475 0.172483L0 10.5216L9.79475 20.8706Z" fill="white"/>
</svg>
