<svg width="311" height="169" viewBox="0 0 311 169" fill="none" xmlns="http://www.w3.org/2000/svg">
<mask id="mask0" mask-type="alpha" maskUnits="userSpaceOnUse" x="0" y="0" width="311" height="169">
<path d="M0 3C0 1.34314 1.34315 0 3 0H308C309.657 0 311 1.34315 311 3V169H0V3Z" fill="#C4C4C4"/>
</mask>
<g mask="url(#mask0)">
<path d="M182.5 58.1562C182.5 57.3125 182.078 56.4688 181.516 55.7656L167.734 41.9844C167.031 41.4219 166.188 41 165.344 41H164.5V59H182.5V58.1562ZM163.375 63.5H182.5V109.625C182.5 110.609 182.078 111.453 181.516 112.016C180.812 112.719 179.969 113 179.125 113H131.875C130.891 113 130.047 112.719 129.484 112.016C128.781 111.453 128.5 110.609 128.5 109.625V44.375C128.5 43.5312 128.781 42.6875 129.484 41.9844C130.047 41.4219 130.891 41 131.875 41H160V60.125C160 61.1094 160.281 61.9531 160.984 62.5156C161.547 63.2188 162.391 63.5 163.375 63.5ZM144.391 65.75C142.422 65.75 140.875 66.4531 139.609 67.7188C138.203 69.125 137.641 70.6719 137.641 72.5C137.641 74.4688 138.203 76.0156 139.609 77.2812C140.875 78.6875 142.422 79.25 144.25 79.25C146.078 79.25 147.625 78.6875 149.031 77.2812C150.438 76.0156 151.141 74.4688 151.141 72.5C151.141 70.6719 150.438 69.125 149.031 67.7188C147.625 66.4531 146.078 65.75 144.391 65.75ZM173.641 99.5V83.75L168.016 78.125C167.734 77.8438 167.312 77.7031 166.891 77.7031C166.328 77.7031 165.906 77.8438 165.625 78.125L151.141 92.75L145.516 87.125C145.094 86.8438 144.672 86.7031 144.25 86.7031C143.828 86.7031 143.547 86.8438 143.266 87.125L137.641 92.75V99.5H173.641Z" fill="url(#paint0_linear)"/>
<rect width="311" height="169" fill="url(#paint1_linear)" fill-opacity="0.55"/>
</g>
<defs>
<linearGradient id="paint0_linear" x1="128.5" y1="78.44" x2="176.212" y2="61.1187" gradientUnits="userSpaceOnUse">
<stop stop-color="#FF5A56"/>
<stop offset="1" stop-color="#FF9A42"/>
</linearGradient>
<linearGradient id="paint1_linear" x1="311" y1="-4.29405e-05" x2="-19.5435" y2="68.6999" gradientUnits="userSpaceOnUse">
<stop stop-color="#0CA1DF"/>
<stop offset="1" stop-color="#FF8408"/>
</linearGradient>
</defs>
</svg>
