<svg width="18" height="21" viewBox="0 0 18 21" fill="none" xmlns="http://www.w3.org/2000/svg">
<path d="M10.7828 10.4784L0.988067 20.8275C0.816229 21 0.644391 21 0.472554 21C0.300716 21 0.128878 21 0.128878 20.8275C-0.0429594 20.655 -0.0429594 20.3101 0.128878 20.1376L9.06444 10.6509L0.128878 0.991787C-0.0429594 0.819302 -0.0429594 0.301848 0.128878 0.129363C0.300716 -0.0431211 0.816229 -0.0431211 0.988067 0.129363L10.7828 10.4784ZM8.20525 0.129363C7.86158 -0.0431211 7.5179 -0.0431211 7.34606 0.129363C7.17422 0.301848 7.17422 0.819302 7.34606 0.991787L16.2816 10.4784L7.34606 19.9651C7.17422 20.1376 7.17422 20.655 7.34606 20.8275C7.5179 21 7.68974 21 7.68974 21C7.86157 21 8.03341 21 8.20525 20.8275L18 10.4784L8.20525 0.129363Z" fill="white"/>
</svg>
