<svg width="84" height="84" viewBox="0 0 84 84" fill="none" xmlns="http://www.w3.org/2000/svg">
<path d="M42 0.09375C49.3906 0.09375 56.4453 2.10938 62.8281 5.80469C69.2109 9.5 74.25 14.5391 77.9453 20.9219C81.6406 27.3047 83.6562 34.3594 83.6562 41.75C83.6562 49.3086 81.6406 56.1953 77.9453 62.5781C74.25 68.9609 69.2109 74.168 62.8281 77.8633C56.4453 81.5586 49.3906 83.4062 42 83.4062C34.4414 83.4062 27.5547 81.5586 21.1719 77.8633C14.7891 74.168 9.58203 68.9609 5.88672 62.5781C2.19141 56.1953 0.34375 49.3086 0.34375 41.75C0.34375 34.3594 2.19141 27.3047 5.88672 20.9219C9.58203 14.5391 14.7891 9.5 21.1719 5.80469C27.5547 2.10938 34.4414 0.09375 42 0.09375ZM42 16.2188C37.9688 16.2188 34.4414 17.7305 31.5859 20.5859C28.5625 23.6094 27.2188 26.9688 27.2188 31C27.2188 35.0312 28.5625 38.5586 31.5859 41.4141C34.4414 44.4375 37.9688 45.7812 42 45.7812C46.0312 45.7812 49.3906 44.4375 52.4141 41.4141C55.2695 38.5586 56.7812 35.0312 56.7812 31C56.7812 26.9688 55.2695 23.6094 52.4141 20.5859C49.3906 17.7305 46.0312 16.2188 42 16.2188ZM42 74C46.7031 74 51.2383 72.9922 55.6055 70.9766C59.9727 68.9609 63.668 66.2734 66.6914 62.5781C65.0117 59.5547 62.6602 57.2031 59.8047 55.3555C56.7812 53.5078 53.5898 52.5 50.0625 52.5C49.7266 52.5 49.2227 52.668 48.8867 52.668C46.5352 53.5078 44.1836 53.8438 42 53.8438C39.6484 53.8438 37.4648 53.5078 35.1133 52.668C34.6094 52.668 34.2734 52.5 33.9375 52.5C30.2422 52.5 27.0508 53.5078 24.1953 55.3555C21.1719 57.2031 18.9883 59.5547 17.3086 62.5781C20.332 66.2734 23.8594 68.9609 28.2266 70.9766C32.5938 72.9922 37.1289 74 42 74Z" fill="url(#paint0_linear)"/>
<defs>
<linearGradient id="paint0_linear" x1="0.343752" y1="43.4162" x2="67.841" y2="10.7438" gradientUnits="userSpaceOnUse">
<stop stop-color="#FF5A56"/>
<stop offset="1" stop-color="#FF9A42"/>
</linearGradient>
</defs>
</svg>
